# xmcd
#
# Track frame offsets: 
#        150
#        17016
#        33256
#        43771
#        56115
#        69616
#        84393
#        97578
#        113236
#        127327
#        139091
#        154910
#        164717
#        176016
#
# Disc length: 2479 seconds
#
# Revision: 0
# Processed by: cddbd v1.5.2PL0 Copyright (c) Steve Scherf et al.
# Submitted via: ExactAudioCopy v0.99pb5
#
DISCID=c109ad0e
DTITLE=Truckstop Honeymoon - Great Big Family
DYEAR=2009
DGENRE=Country
TTITLE0=Mardi Gras in Kansas
TTITLE1=Great Big Family 
TTITLE2=The River and The Lake
TTITLE3=The Girl I Used to Be
TTITLE4=Beautiful Fire
TTITLE5=The cover Of The N.Y.T.
TTITLE6=Georgia and Blue
TTITLE7=Blue Ribbon 
TTITLE8=Movie Matinee 
TTITLE9=Nobody Asks Me
TTITLE10=Don't Think 
TTITLE11=He Ain't Out of Date
TTITLE12=Sinner's Prayer
TTITLE13=Just About 17 
EXTD=
EXTT0=
EXTT1=
EXTT2=
EXTT3=
EXTT4=
EXTT5=
EXTT6=
EXTT7=
EXTT8=
EXTT9=
EXTT10=
EXTT11=
EXTT12=
EXTT13=
PLAYORDER=
